# Blender v2.74 (sub 0) OBJ File: 'model01.blend'
# www.blender.org
mtllib model01.mtl
o Cube
v 0.999882 1.000118 -1.000000
v 0.999882 1.000118 1.000000
v 1.000118 -0.999882 1.000000
v 1.000118 -0.999882 -1.000000
v -1.000118 0.999883 -0.999999
v -1.000118 0.999882 1.000001
v -0.999882 -1.000118 1.000000
v -0.999882 -1.000118 -1.000000
v -0.500118 0.999941 1.000000
v -1.000118 0.999882 0.500001
v 0.999882 1.000118 -0.500000
v 0.499882 1.000059 -1.000000
v 0.499882 1.000059 -0.500000
v -0.500118 0.999941 0.500000
v -1.036596 2.665249 2.072566
v -2.072879 2.665127 2.072567
v -2.072879 2.665128 1.036284
v 2.072251 2.665616 -2.072565
v 2.072251 2.665616 -1.036282
v 1.035969 2.665494 -2.072565
v 1.035969 2.665494 -1.036282
v -1.036596 2.665250 1.036283
v -1.036749 3.962531 2.072567
v -2.073032 3.962409 2.072567
v -2.073032 3.962409 1.036284
v 2.072098 3.962898 -2.072565
v 2.072098 3.962898 -1.036282
v 1.035816 3.962776 -2.072564
v 1.035816 3.962776 -1.036282
v -1.036749 3.962531 1.036284
v -0.586637 4.913032 1.140333
v -1.172696 4.912964 1.140333
v -1.172665 4.647501 0.617845
v 1.171525 5.022912 -1.043727
v 1.171582 4.538105 -0.714446
v 0.585467 5.022843 -1.043727
v 0.585524 4.538036 -0.714446
v -0.586606 4.647570 0.617845
vt 1.000000 0.203458
vt 0.799786 0.152301
vt 1.000000 0.000390
vt 0.697679 0.796899
vt 0.697679 1.000000
vt 0.496862 0.949225
vt 0.600437 0.402470
vt 0.650743 0.400698
vt 0.601124 0.564837
vt 0.054793 0.635598
vt 0.145256 0.399867
vt 0.248467 0.579958
vt 0.201378 0.838698
vt 0.000000 0.838698
vt 0.000000 0.635598
vt 0.303174 0.579283
vt 0.393733 0.343707
vt 0.496862 0.523692
vt 0.755809 0.775825
vt 0.651658 0.612070
vt 0.755970 0.614581
vt 0.601325 0.399587
vt 0.496862 0.235619
vt 0.601179 0.237922
vt 0.749535 0.003086
vt 0.799786 0.000000
vt 0.755807 0.167591
vt 0.442155 0.329810
vt 0.396504 0.154564
vt 0.891034 0.814261
vt 0.806139 0.621327
vt 0.909539 0.635316
vt 0.324310 0.901682
vt 0.248467 0.708651
vt 0.351217 0.726965
vt 0.193674 0.385957
vt 0.148116 0.211203
vt 0.806139 0.922561
vt 0.906153 0.821011
vt 0.956160 0.973336
vt 0.799786 0.203068
vt 0.496862 1.000000
vt 0.496862 0.796899
vt 0.496862 0.568510
vt 0.000000 0.441597
vt 0.201378 0.635598
vt 0.248467 0.385401
vt 0.806139 0.777036
vt 0.651658 0.400698
vt 0.651658 0.173987
vt 0.496862 0.125760
vt 0.940924 0.821011
vt 0.373886 0.910519
vt 0.248467 0.182374
vt 0.899800 0.203458
vt 0.949807 0.203458
vt 0.949807 0.355783
vt 0.806139 0.973336
vt 0.956160 0.821011
vt 0.799786 0.355783
vt 0.799786 0.305008
vt 0.605407 0.695744
vt 0.501145 0.699417
vt 0.654751 0.481354
vt 0.650743 0.768260
vt 0.599051 0.796899
vt 0.759063 0.483865
vt 0.747146 0.409328
vt 0.499701 0.104808
vt 0.604018 0.107111
vt 0.763724 0.298720
vt 0.659575 0.305116
vt 0.361019 0.028804
vt 0.461376 0.000000
vt 0.823653 0.491546
vt 0.927053 0.505535
vt 0.271136 0.579283
vt 0.373886 0.597598
vt 0.112575 0.085366
vt 0.212926 0.056537
vt 0.387824 0.726185
vt 0.436340 0.699322
vt 0.464738 0.751491
vt 0.651658 0.001302
vt 0.650681 0.046293
vt 0.591686 0.044991
vt 0.799786 0.358291
vt 0.769651 0.409328
vt 0.724135 0.896650
vt 0.759762 0.777036
vt 0.806139 0.813836
vt 0.940924 0.409328
vt 0.373886 0.629587
vt 0.464738 0.579283
vt 0.045934 0.016304
vt 0.102686 0.000000
vt 0.806139 0.410747
vt 0.416222 0.778355
vt 0.592662 0.000000
vt 0.806139 0.961720
vn 1.000000 0.000100 0.000000
vn -1.000000 -0.000100 -0.000000
vn 0.951800 0.306600 0.000000
vn -0.000000 -0.000000 1.000000
vn 0.000100 -1.000000 -0.000000
vn -0.000000 0.000000 -1.000000
vn -0.000000 0.306500 -0.951900
vn -0.000000 0.306500 0.951900
vn -0.951900 0.306400 0.000000
vn 0.000100 -0.541500 -0.840700
vn 0.840800 -0.541400 0.000000
vn -0.840700 -0.541600 -0.000000
vn 0.000100 -0.541500 0.840700
vn -0.000100 1.000000 0.000000
vn 0.687200 0.235100 -0.687300
vn 0.670700 -0.387500 -0.632400
vn 0.604000 0.250000 0.756700
vn -0.763700 -0.167100 -0.623600
vn -0.759600 0.244700 -0.602600
vn 0.710700 0.103800 -0.695800
vn 0.738800 0.648700 0.182700
vn -0.278300 0.318300 -0.906200
vn 0.763700 -0.166900 0.623600
vn 0.758000 0.228400 0.610900
vn -0.676200 -0.365600 0.639500
vn -0.687300 0.234900 0.687300
vn -0.607400 0.251300 -0.753600
vn -0.623600 -0.167000 -0.763700
vn 0.651800 0.376300 -0.658300
vn 0.671000 -0.315500 -0.670900
vn -0.670900 -0.315600 0.670900
vn -0.651700 0.385400 0.653200
vn 0.623600 -0.166900 0.763700
vn -0.291600 0.951200 0.100700
vn -0.703800 0.710100 0.018900
vn -0.791400 -0.131200 0.596900
vn 0.205700 0.106500 0.972800
vn 0.290000 0.949900 0.116600
usemtl Material
s off
f 4/1/1 11/2/1 3/3/1
f 8/4/2 7/5/2 10/6/2
f 9/7/3 14/8/3 22/9/3
f 3/10/4 9/11/4 7/12/4
f 3/13/5 7/14/5 8/15/5
f 8/16/6 12/17/6 4/18/6
f 10/19/7 17/20/7 22/21/7
f 11/22/8 19/23/8 21/24/8
f 12/25/9 13/26/9 21/27/9
f 1/28/10 12/17/10 20/29/10
f 1/30/11 18/31/11 19/32/11
f 6/33/12 16/34/12 17/35/12
f 6/36/13 9/11/13 15/37/13
f 14/38/14 13/39/14 5/40/14
f 11/2/1 4/1/1 1/41/1
f 11/2/1 2/26/1 3/3/1
f 7/5/2 6/42/2 10/6/2
f 10/6/2 5/43/2 8/4/2
f 15/44/3 9/7/3 22/9/3
f 9/11/4 3/10/4 2/45/4
f 9/11/4 6/36/4 7/12/4
f 4/46/5 3/13/5 8/15/5
f 12/17/6 8/16/6 5/47/6
f 12/17/6 1/28/6 4/18/6
f 14/48/7 10/19/7 22/21/7
f 13/49/8 11/22/8 21/24/8
f 20/50/9 12/25/9 21/27/9
f 18/51/10 1/28/10 20/29/10
f 11/52/11 1/30/11 19/32/11
f 10/53/12 6/33/12 17/35/12
f 16/54/13 6/36/13 15/37/13
f 14/55/14 9/56/14 2/57/14
f 5/40/14 10/58/14 14/38/14
f 13/39/14 12/59/14 5/40/14
f 2/57/14 11/60/14 13/61/14
f 13/61/14 14/55/14 2/57/14
s 1
f 22/9/15 30/62/16 23/63/17
f 22/21/15 17/20/18 25/64/19
f 30/62/16 38/65/20 31/66/21
f 30/67/16 25/64/19 33/68/22
f 19/23/23 27/69/24 29/70/25
f 21/27/26 29/71/25 28/72/27
f 20/29/28 28/73/27 26/74/29
f 18/31/30 26/75/29 27/76/24
f 16/34/31 24/77/32 25/78/19
f 15/37/33 23/79/17 24/80/32
f 33/81/22 32/82/34 31/83/21
f 36/84/35 37/85/36 35/86/37
f 29/70/25 27/69/24 35/86/37
f 29/71/25 37/87/36 36/88/35
f 28/89/27 36/90/35 34/91/38
f 27/76/24 26/75/29 34/92/38
f 25/93/19 24/94/32 32/82/34
f 23/79/17 31/95/21 32/96/34
f 15/44/33 22/9/15 23/63/17
f 30/67/16 22/21/15 25/64/19
f 23/63/17 30/62/16 31/66/21
f 38/97/20 30/67/16 33/68/22
f 21/24/26 19/23/23 29/70/25
f 20/50/28 21/27/26 28/72/27
f 18/51/30 20/29/28 26/74/29
f 19/32/23 18/31/30 27/76/24
f 17/35/18 16/34/31 25/78/19
f 16/54/31 15/37/33 24/80/32
f 38/98/20 33/81/22 31/83/21
f 34/99/38 36/84/35 35/86/37
f 37/85/36 29/70/25 35/86/37
f 28/72/27 29/71/25 36/88/35
f 26/100/29 28/89/27 34/91/38
f 35/86/37 27/69/24 34/99/38
f 33/81/22 25/93/19 32/82/34
f 24/80/32 23/79/17 32/96/34
